<svg xmlns="http://www.w3.org/2000/svg" width="20" height="20" fill="none" viewBox="0 0 20 20"><g fill="#FAFAFB" clip-path="url(#a)"><path d="M5.675.182A.625.625 0 0 1 6.116 0h7.768c.165 0 .324.066.441.182l5.492 5.493a.625.625 0 0 1 .183.441v7.768a.625.625 0 0 1-.183.441l-5.492 5.492a.625.625 0 0 1-.441.183H6.116a.625.625 0 0 1-.441-.183L.183 14.325A.625.625 0 0 1 0 13.884V6.116c0-.165.066-.324.182-.441L5.676.183Zm.7 1.068L1.25 6.375v7.25l5.125 5.125h7.25l5.125-5.125v-7.25L13.625 1.25h-7.25Z"/><path d="M5.808 5.807a.625.625 0 0 1 .885 0L10 9.117l3.308-3.31a.626.626 0 0 1 .885.885L10.883 10l3.31 3.307a.625.625 0 1 1-.885.886L10 10.883l-3.307 3.31a.625.625 0 1 1-.885-.886L9.116 10 5.808 6.692a.625.625 0 0 1 0-.885Z"/></g><defs><clipPath id="a"><path fill="#fff" d="M0 0h20v20H0z"/></clipPath></defs></svg>