<svg xmlns="http://www.w3.org/2000/svg" width="20" height="20" fill="none" viewBox="0 0 20 20"><g fill="#FAFAFB" clip-path="url(#a)"><path d="M10 18.75a8.75 8.75 0 1 1 0-17.5 8.75 8.75 0 0 1 0 17.5ZM10 20a10 10 0 1 0 0-20 10 10 0 0 0 0 20Z"/><path d="M11.162 8.235 8.3 8.594l-.103.475.563.103c.367.088.44.22.36.587l-.923 4.335c-.242 1.121.132 1.649 1.01 1.649.682 0 1.473-.316 1.832-.748l.11-.52c-.25.22-.615.308-.858.308-.344 0-.469-.242-.38-.667l1.251-5.881Zm.088-2.61a1.25 1.25 0 1 1-2.5 0 1.25 1.25 0 0 1 2.5 0Z"/></g><defs><clipPath id="a"><path fill="#fff" d="M0 0h20v20H0z"/></clipPath></defs></svg>